<svg xmlns="http://www.w3.org/2000/svg" viewBox="0 0 574.48 92.55"><defs><style>.cls-1{fill:#e51f1f;}.cls-2{fill:#003dc4;}.cls-3{fill:#ffec00;}.cls-4{fill:#0b8717;}</style></defs><title>Asset 1</title><g id="Layer_2" data-name="Layer 2"><g id="Layer_1-2" data-name="Layer 1"><path d="M161,42.33c-2.91,4.63-4.95,7.86-7.22,11.49-6.65,0-13.32-.16-20,0-8.33.24-12.86,4.19-13,10.93-.13,7,4,11.29,12.08,11.94,4.76.39,9.59.08,14.94.08.2-2,.37-3.66.64-6.4h-21l6.72-10.29h26.17c.43,9.53.83,18.7,1.29,29-13.45-.13-25.87,1.41-37.93-2.31-9.75-3-16.34-13.85-15.62-24.33.75-10.88,7.5-18.87,18.9-19.91C137.67,41.56,148.52,42.33,161,42.33Z"/><path d="M494.27,74H470.68c-2.18,4.57-.14,5.85,3.67,5.9,6.38.08,12.76.1,19.13.23,2.95,0,5.9.29,10.18.51l-6.36,11h-40V45.34h45.51l-7.36,12.18H468.13c3.77,8.51,10,4.84,14.66,5.44,5.37.68,10.89.16,18.34.16C498.42,67.4,496.5,70.45,494.27,74Z"/><path d="M195.61,92.4c-15.41-.31-26.32-11.61-25.92-26.84.37-13.81,11.53-23.93,26-23.56C211,42.4,222,54,221.5,69.12,221.05,83.31,210.62,92.69,195.61,92.4Zm10.32-23.19c.59-7.58-3.54-13.35-9.92-13.82-5.86-.43-10,3.42-10.66,9.87-.76,7.82,3.74,14.11,10.39,14.49C201.18,80.07,205.43,75.67,205.93,69.21Z"/><path d="M360.55,75.36,372.5,89.89H356.4L347,77.81H328.36c-.38,3.63-.75,7.12-1.19,11.32H315.54c-.36-7.64-.72-15.26-1.06-22.66,14.47-4,29.36,3.75,42-4.8-.75-6.58-5.05-6.65-8.94-6.71-10.3-.17-20.6-.06-33.18-.06l7.23-12c12-.09,23.95-1.26,35.88,2,6.14,1.71,10.77,4.84,11.91,11.08,1.19,6.5-.28,12.66-5.88,17.11C362.79,73.68,362.06,74.21,360.55,75.36Z"/><path d="M71.35,75.92h17L77.08,56.74c-6.62,10.93-12.66,20.9-18.51,30.58H44c3-5.3,5.34-9.41,7.74-13.47C57.11,64.69,62.35,55.43,68,46.45c5.41-8.56,11.52-8.84,16.89-.56,8.75,13.47,17,27.27,26,41.9H64.75Z"/><path d="M398,55.71l8-12.59c8.44.57,17,.49,25.3,1.87,11.33,1.88,19.88,12.77,18.76,23.42C448.67,81,444,89.32,429.4,90.89c-9.84,1.06-19.88.21-30.61.21v-29h10.94c.54,5.18,1.08,10.47,1.74,16.83,5.76,0,11.13.34,16.44-.09,5.47-.45,8.84-3.93,9.71-9.31.83-5.07-3-10.94-8.58-12.35-4.34-1.09-9-1.22-13.48-1.41C410.23,55.54,404.89,55.71,398,55.71Z"/><path d="M240.42,58.13c4.15,1.76,6.65,3,9.27,3.89,4.59,1.53,9.5,2.33,13.83,4.37a12,12,0,0,1,5.09,17.72c-6,8.93-15.23,9.08-24.52,7.94-8.76-1.07-13.11-5.36-15.4-14.6,5.87-1.18,11.35-2.62,16.85,1.83,3.91,3.17,7.73,2.44,10.73-3.69-2.87-1.3-5.35-2.68-8-3.56-4.59-1.53-9.54-2.2-13.87-4.22-7.62-3.56-9.17-12.86-3.71-19.19,10.08-11.69,32.85-7.43,38.61,7.86-5.42,2.26-10.65,2.59-15.94-.33C247.9,53.12,247.9,53.11,240.42,58.13Z"/><path d="M0,86.75V40.15H11.82V74.57L43.28,76.1,36.86,86.75Z"/><path d="M378.21,43.71h11.17v46.1H378.21Z"/><rect class="cls-1" x="489.48" width="20.94" height="24.23"/><rect class="cls-2" x="510.83" y="24.64" width="20.94" height="24.23"/><rect class="cls-3" x="532.19" width="20.94" height="24.23"/><rect class="cls-4" x="553.54" y="24.64" width="20.94" height="24.23"/></g></g></svg>